<svg xmlns="http://www.w3.org/2000/svg" width="20" height="20">
<style type="text/css">
	.st0{fill:#FFFFFF;}
	.st1{fill:#C4032B;}
</style>
<rect x="3.1" y="5.3" class="st0" width="13.3" height="9.6"/>
<path class="st1" d="M10,0C4.5,0,0,4.5,0,10c0,5.5,4.5,10,10,10c5.5,0,10-4.5,10-10C20,4.5,15.5,0,10,0z M13.7,14.1
	c-1.8,0.1-5.7,0.1-7.4,0C4.4,13.9,4.2,13,4.2,10c0-3,0.2-3.9,2.1-4.1c1.8-0.1,5.7-0.1,7.4,0c1.9,0.1,2.1,1.1,2.1,4.1
	C15.8,13,15.6,13.9,13.7,14.1L13.7,14.1z M8.3,8l4.1,1.9l-4.1,2V8z"/>
</svg>
